<?xml version="1.0" encoding="UTF-8" standalone="no"?>
<!-- Created with Inkscape (http://www.inkscape.org/) -->

<svg
   width="120mm"
   height="119.99999mm"
   viewBox="0 0 120 119.99999"
   version="1.1"
   id="svg1"
   xml:space="preserve"
   inkscape:export-filename="bitmap.svg"
   inkscape:export-xdpi="96"
   inkscape:export-ydpi="96"
   sodipodi:docname="knocking.svg"
   inkscape:version="1.4 (e7c3feb1, 2024-10-09)"
   xmlns:inkscape="http://www.inkscape.org/namespaces/inkscape"
   xmlns:sodipodi="http://sodipodi.sourceforge.net/DTD/sodipodi-0.dtd"
   xmlns="http://www.w3.org/2000/svg"
   xmlns:svg="http://www.w3.org/2000/svg"><sodipodi:namedview
     id="namedview1"
     pagecolor="#ffffff"
     bordercolor="#cccccc"
     borderopacity="1"
     inkscape:showpageshadow="0"
     inkscape:pageopacity="1"
     inkscape:pagecheckerboard="0"
     inkscape:deskcolor="#d1d1d1"
     inkscape:document-units="mm"
     showgrid="true"
     inkscape:zoom="1.1694231"
     inkscape:cx="238.15162"
     inkscape:cy="233.44845"
     inkscape:window-width="1440"
     inkscape:window-height="847"
     inkscape:window-x="-1"
     inkscape:window-y="25"
     inkscape:window-maximized="0"
     inkscape:current-layer="layer1"><inkscape:grid
       id="grid14"
       units="mm"
       originx="0"
       originy="0"
       spacingx="0.99999998"
       spacingy="1"
       empcolor="#0099e5"
       empopacity="0.30196078"
       color="#0099e5"
       opacity="0.14901961"
       empspacing="5"
       enabled="true"
       visible="true" /></sodipodi:namedview><defs
     id="defs1" /><g
     inkscape:label="Layer 1"
     inkscape:groupmode="layer"
     id="layer1"><path
       style="fill:none;fill-opacity:1;stroke:#000000;stroke-width:2.64583;stroke-dasharray:none;stroke-opacity:1"
       d="m 19.714857,73.420928 c 3.525377,8.64807 6.664585,17.896996 10.359267,26.037155 2.11516,5.809567 7.34176,1.035307 10.884864,0.0625 2.275354,0.711107 5.01272,1.419477 7.5577,1.852467 2.669958,0.15629 5.19349,0.49894 8.733868,-0.45258 8.275937,-2.950675 18.947542,-8.030831 28.421313,-12.046245 1.663539,-1.33845 2.102633,-1.998187 2.621148,-3.291271 1.395614,-3.340765 0.200884,-9.821721 -6.045111,-8.206106 1.978596,-1.060993 4.5614,-1.920445 6.169189,-4.835473 2.253042,-6.249453 -1.801804,-8.888604 -6.120414,-9.829836 C 86.865796,62.612076 89.40559,48.751341 78.013329,49.112451 82.96599,36.191327 69.11624,35.949784 67.067345,38.326948 66.203318,36.142371 65.490609,35.636147 62.405558,32.98131 c -4.032464,-1.993282 -7.602812,-0.972557 -11.634426,1.467065 -10.642117,5.988177 -10.885203,5.567357 -15.793606,9.194118 -3.174529,7.716133 -5.058268,13.221658 -8.57247,21.571415 -6.365826,4.785958 -8.764641,2.813643 -6.690199,8.20702 z"
       id="path6"
       sodipodi:nodetypes="ccccccccccccccccc" /><path
       style="fill:none;fill-opacity:1;stroke:#000000;stroke-width:2.64583;stroke-linecap:round;stroke-dasharray:none;stroke-opacity:1"
       d="m 66.765387,37.748124 5.384046,11.718218 c -0.0894,6.79977 -3.820397,7.408836 -8.07607,7.125947 -3.258956,-1.439561 -6.233295,-3.543227 -8.234424,-7.917717 l -5.542402,3.32544 c 8.163412,13.72701 6.137253,23.748721 -4.275565,30.720738"
       id="path7"
       sodipodi:nodetypes="cccccc" /><path
       style="fill:none;fill-opacity:1;stroke:#000000;stroke-width:2.64583;stroke-dasharray:none;stroke-opacity:1"
       d="m 62.48982,56.275578 c -1.174114,1.034173 -2.777855,1.331471 -3.336308,2.403325 -2.115658,4.060639 -1.152268,11.056822 5.869977,11.215147 -5.03335,2.708342 -4.44587,6.866554 -2.079423,10.391094 2.022718,3.012594 3.217485,1.771329 5.721572,2.277249 -4.977028,5.232627 -1.536548,9.543937 3.958857,11.559864 v 0 0"
       id="path8"
       sodipodi:nodetypes="cscscccc" /><path
       style="fill:none;fill-opacity:1;stroke:#000000;stroke-width:2.64583;stroke-linecap:round;stroke-dasharray:none;stroke-opacity:1"
       d="m 96.932861,28.764687 -7.950137,11.35734"
       id="path9" /><path
       style="fill:none;fill-opacity:1;stroke:#000000;stroke-width:2.64583;stroke-linecap:round;stroke-dasharray:none;stroke-opacity:1"
       d="M 94.207099,48.526456 107.83591,40.57632"
       id="path10" /><path
       style="fill:none;fill-opacity:1;stroke:#000000;stroke-width:2.64583;stroke-linecap:round;stroke-dasharray:none;stroke-opacity:1"
       d="m 96.860427,59.266527 13.401663,1.135735"
       id="path11" /><path
       style="fill:none;fill-opacity:1;stroke:#000000;stroke-width:2.64583;stroke-linecap:round;stroke-dasharray:none;stroke-opacity:1"
       d="M 64.977526,69.642494 83.498682,62.160493"
       id="path12"
       sodipodi:nodetypes="cc" /><path
       style="fill:none;fill-opacity:1;stroke:#000000;stroke-width:2.64583;stroke-linecap:round;stroke-dasharray:none;stroke-opacity:1"
       d="m 68.162376,82.451603 15.81515,-5.809109"
       id="path13"
       sodipodi:nodetypes="cc" /><path
       style="fill:none;fill-opacity:1;stroke:#000000;stroke-width:2.64583;stroke-linecap:round;stroke-dasharray:none;stroke-opacity:1"
       d="M 72.174017,51.899092 78.544483,48.83183"
       id="path14" /></g></svg>
